{
  "accessors": [
    {
      "bufferView": 3,
      "componentType": 5126,
      "count": 5278,
      "max": [
        0.2426769882440567,
        0.9715173840522766,
        1.0291787385940552
      ],
      "min": [
        -0.2429843544960022,
        -0.004022530745714903,
        -0.5538123846054077
      ],
      "type": "VEC3"
    },
    {
      "bufferView": 3,
      "byteOffset": 63336,
      "componentType": 5126,
      "count": 5278,
      "max": [
        0.9999998807907104,
        0.9999650716781616,
        0.9975216388702393
      ],
      "min": [
        -0.9999852180480957,
        -0.9999099373817444,
        -0.9999977350234985
      ],
      "type": "VEC3"
    },
    {
      "bufferView": 2,
      "componentType": 5126,
      "count": 5278,
      "max": [
        0.8191207647323608,
        0.9961338043212891
      ],
      "min": [
        0.1690596640110016,
        0.003866136074066162
      ],
      "type": "VEC2"
    },
    {
      "bufferView": 1,
      "componentType": 5125,
      "count": 25551,
      "type": "SCALAR"
    },
    {
      "bufferView": 5,
      "componentType": 5126,
      "count": 44,
      "max": [
        1.0,
        0.5819524526596069,
        0.9999995231628418,
        0.0,
        0.08852919936180115,
        1.0,
        1.000000238418579,
        0.0,
        0.8808664083480835,
        1.0000001192092896,
        1.0000001192092896,
        0.0,
        0.9492198824882507,
        0.7038144469261169,
        0.8948642611503601,
        1.0
      ],
      "min": [
        -1.0000001192092896,
        -0.5886121988296509,
        -0.773718535900116,
        0.0,
        -0.5416246652603149,
        -1.000000238418579,
        -1.0,
        0.0,
        -0.8810842037200928,
        -1.0,
        -1.0000001192092896,
        0.0,
        -0.5746495723724365,
        -0.7704150676727295,
        -0.997611403465271,
        1.0
      ],
      "type": "MAT4"
    },
    {
      "bufferView": 0,
      "componentType": 5123,
      "count": 5278,
      "type": "VEC4"
    },
    {
      "bufferView": 4,
      "componentType": 5126,
      "count": 5278,
      "max": [
        1.0,
        0.4977535009384155,
        0.32318028807640076,
        0.2319311946630478
      ],
      "min": [
        0.2801434099674225,
        0.0,
        0.0,
        0.0
      ],
      "type": "VEC4"
    },
    {
      "bufferView": 6,
      "componentType": 5126,
      "count": 1,
      "max": [
        0.0416666679084301
      ],
      "min": [
        0.0416666679084301
      ],
      "type": "SCALAR"
    },
    {
      "bufferView": 7,
      "componentType": 5126,
      "count": 1,
      "max": [
        -6.990179102217553e-09,
        0.682802140712738,
        -0.2782282531261444
      ],
      "min": [
        -6.990179102217553e-09,
        0.682802140712738,
        -0.2782282531261444
      ],
      "type": "VEC3"
    },
    {
      "bufferView": 6,
      "byteOffset": 4,
      "componentType": 5126,
      "count": 209,
      "max": [
        8.708333015441895
      ],
      "min": [
        0.0416666679084301
      ],
      "type": "SCALAR"
    },
    {
      "bufferView": 8,
      "componentType": 5126,
      "count": 209,
      "max": [
        0.010985009372234344,
        0.7071108222007751,
        0.7169411778450012,
        0.010808588936924934
      ],
      "min": [
        -4.068683210789459e-06,
        -0.7070563435554504,
        -0.7169528603553772,
        3.900651336152805e-06
      ],
      "type": "VEC4"
    },
    {
      "bufferView": 6,
      "byteOffset": 840,
      "componentType": 5126,
      "count": 209,
      "max": [
        8.708333015441895
      ],
      "min": [
        0.0416666679084301
      ],
      "type": "SCALAR"
    },
    {
      "bufferView": 7,
      "byteOffset": 12,
      "componentType": 5126,
      "count": 209,
      "max": [
        -1.5133452961890725e-06,
        -0.0831712931394577,
        0.009345723316073418
      ],
      "min": [
        -1.5724099284852855e-06,
        -0.09284330159425735,
        0.005001937970519066
      ],
      "type": "VEC3"
    },
    {
      "bufferView": 6,
      "byteOffset": 1676,
      "componentType": 5126,
      "count": 209,
      "max": [
        8.708333015441895
      ],
      "min": [
        0.0416666679084301
      ],
      "type": "SCALAR"
    },
    {
      "bufferView": 8,
      "byteOffset": 3344,
      "componentType": 5126,
      "count": 209,
      "max": [
        0.999391496181488,
        6.694983198940463e-07,
        -5.488036094902782e-06,
        0.07032369077205658
      ],
      "min": [
        0.9975242614746094,
        2.280740716287255e-07,
        -5.7830661717162e-06,
        0.03488142043352127
      ],
      "type": "VEC4"
    },
    {
      "bufferView": 6,
      "byteOffset": 2512,
      "componentType": 5126,
      "count": 209,
      "max": [
        8.708333015441895
      ],
      "min": [
        0.0416666679084301
      ],
      "type": "SCALAR"
    },
    {
      "bufferView": 7,
      "byteOffset": 2520,
      "componentType": 5126,
      "count": 209,
      "max": [
        3.338927712093209e-08,
        0.14775334298610687,
        0.0060317786410450935
      ],
      "min": [
        -1.6332622365666793e-08,
        0.1380643993616104,
        -0.00021837915119249374
      ],
      "type": "VEC3"
    },
    {
      "bufferView": 6,
      "byteOffset": 3348,
      "componentType": 5126,
      "count": 209,
      "max": [
        8.708333015441895
      ],
      "min": [
        0.0416666679084301
      ],
      "type": "SCALAR"
    },
    {
      "bufferView": 8,
      "byteOffset": 6688,
      "componentType": 5126,
      "count": 209,
      "max": [
        0.0023501100949943066,
        3.844519596896134e-05,
        0.002064212691038847,
        1.0
      ],
      "min": [
        -0.053861286491155624,
        -2.8161515729152597e-05,
        -0.0015124904457479715,
        0.9985484480857849
      ],
      "type": "VEC4"
    },
    {
      "bufferView": 6,
      "byteOffset": 4184,
      "componentType": 5126,
      "count": 209,
      "max": [
        8.708333015441895
      ],
      "min": [
        0.0416666679084301
      ],
      "type": "SCALAR"
    },
    {
      "bufferView": 7,
      "byteOffset": 5028,
      "componentType": 5126,
      "count": 209,
      "max": [
        8.627836223240593e-09,
        0.14211803674697876,
        0.0047518969513475895
      ],
      "min": [
        -4.785054130707067e-08,
        0.1414589285850525,
        0.002933504991233349
      ],
      "type": "VEC3"
    },
    {
      "bufferView": 6,
      "byteOffset": 5020,
      "componentType": 5126,
      "count": 209,
      "max": [
        8.708333015441895
      ],
      "min": [
        0.0416666679084301
      ],
      "type": "SCALAR"
    },
    {
      "bufferView": 8,
      "byteOffset": 10032,
      "componentType": 5126,
      "count": 209,
      "max": [
        2.984894820201589e-07,
        -0.998925507068634,
        -0.036115359514951706,
        5.653762613633262e-08
      ],
      "min": [
        -3.95877677306089e-08,
        -0.9993476271629333,
        -0.04634426161646843,
        3.33875327385158e-08
      ],
      "type": "VEC4"
    },
    {
      "bufferView": 6,
      "byteOffset": 5856,
      "componentType": 5126,
      "count": 209,
      "max": [
        8.708333015441895
      ],
      "min": [
        0.0416666679084301
      ],
      "type": "SCALAR"
    },
    {
      "bufferView": 7,
      "byteOffset": 7536,
      "componentType": 5126,
      "count": 209,
      "max": [
        3.2076080458409706e-08,
        0.14401336014270782,
        -0.010753851383924484
      ],
      "min": [
        -2.614245886434219e-08,
        0.13403727114200592,
        -0.02464705891907215
      ],
      "type": "VEC3"
    },
    {
      "bufferView": 6,
      "byteOffset": 6692,
      "componentType": 5126,
      "count": 209,
      "max": [
        8.708333015441895
      ],
      "min": [
        0.0416666679084301
      ],
      "type": "SCALAR"
    },
    {
      "bufferView": 8,
      "byteOffset": 13376,
      "componentType": 5126,
      "count": 209,
      "max": [
        0.0023625807370990515,
        -7.636175780589838e-08,
        1.4763620015401102e-07,
        1.0
      ],
      "min": [
        -0.08572803437709808,
        -9.473183837371835e-08,
        -1.758742769197852e-07,
        0.9963185787200928
      ],
      "type": "VEC4"
    },
    {
      "bufferView": 6,
      "byteOffset": 7528,
      "componentType": 5126,
      "count": 209,
      "max": [
        8.708333015441895
      ],
      "min": [
        0.0416666679084301
      ],
      "type": "SCALAR"
    },
    {
      "bufferView": 7,
      "byteOffset": 10044,
      "componentType": 5126,
      "count": 209,
      "max": [
        1.552037609542367e-08,
        0.14446520805358887,
        -0.0004367477376945317
      ],
      "min": [
        -4.002531994728997e-08,
        0.13510550558567047,
        -0.01216881163418293
      ],
      "type": "VEC3"
    },
    {
      "bufferView": 6,
      "byteOffset": 8364,
      "componentType": 5126,
      "count": 209,
      "max": [
        8.708333015441895
      ],
      "min": [
        0.0416666679084301
      ],
      "type": "SCALAR"
    },
    {
      "bufferView": 8,
      "byteOffset": 16720,
      "componentType": 5126,
      "count": 209,
      "max": [
        0.04059787094593048,
        -2.310844138264656e-07,
        1.3816499233598734e-07,
        1.0
      ],
      "min": [
        -0.032631583511829376,
        -2.426885430395487e-07,
        -1.0821081275480537e-07,
        0.9991755485534668
      ],
      "type": "VEC4"
    },
    {
      "bufferView": 6,
      "byteOffset": 9200,
      "componentType": 5126,
      "count": 209,
      "max": [
        8.708333015441895
      ],
      "min": [
        0.0416666679084301
      ],
      "type": "SCALAR"
    },
    {
      "bufferView": 8,
      "byteOffset": 20064,
      "componentType": 5126,
      "count": 209,
      "max": [
        0.03761250525712967,
        -0.9518619179725647,
        -0.2763567566871643,
        0.0047880434431135654
      ],
      "min": [
        0.0003334442444611341,
        -0.9603200554847717,
        -0.3065216839313507,
        0.0016693675424903631
      ],
      "type": "VEC4"
    },
    {
      "bufferView": 6,
      "byteOffset": 10036,
      "componentType": 5126,
      "count": 209,
      "max": [
        8.708333015441895
      ],
      "min": [
        0.0416666679084301
      ],
      "type": "SCALAR"
    },
    {
      "bufferView": 8,
      "byteOffset": 23408,
      "componentType": 5126,
      "count": 209,
      "max": [
        0.29647907614707947,
        2.2673214061796898e-07,
        4.883864690441442e-08,
        0.9593356847763062
      ],
      "min": [
        0.2822677791118622,
        1.0184611909380692e-07,
        -2.3691703177064483e-07,
        0.9550393223762512
      ],
      "type": "VEC4"
    },
    {
      "bufferView": 6,
      "byteOffset": 10872,
      "componentType": 5126,
      "count": 209,
      "max": [
        8.708333015441895
      ],
      "min": [
        0.0416666679084301
      ],
      "type": "SCALAR"
    },
    {
      "bufferView": 8,
      "byteOffset": 26752,
      "componentType": 5126,
      "count": 209,
      "max": [
        -0.0639525055885315,
        0.019038205966353416,
        0.03858580067753792,
        0.997894287109375
      ],
      "min": [
        -0.06962884217500687,
        -0.011099175550043583,
        0.00010621386172715575,
        0.9966483116149902
      ],
      "type": "VEC4"
    },
    {
      "bufferView": 6,
      "byteOffset": 11708,
      "componentType": 5126,
      "count": 1,
      "max": [
        0.0416666679084301
      ],
      "min": [
        0.0416666679084301
      ],
      "type": "SCALAR"
    },
    {
      "bufferView": 8,
      "byteOffset": 30096,
      "componentType": 5126,
      "count": 1,
      "max": [
        0.7501104474067688,
        -9.507044183010294e-07,
        -8.626622616247914e-07,
        0.6613126397132874
      ],
      "min": [
        0.7501104474067688,
        -9.507044183010294e-07,
        -8.626622616247914e-07,
        0.6613126397132874
      ],
      "type": "VEC4"
    },
    {
      "bufferView": 6,
      "byteOffset": 11712,
      "componentType": 5126,
      "count": 209,
      "max": [
        8.708333015441895
      ],
      "min": [
        0.0416666679084301
      ],
      "type": "SCALAR"
    },
    {
      "bufferView": 8,
      "byteOffset": 30112,
      "componentType": 5126,
      "count": 209,
      "max": [
        0.030805565416812897,
        0.9780491590499878,
        0.24008998274803162,
        0.002680719131603837
      ],
      "min": [
        -0.011007883585989475,
        0.9706951975822449,
        0.20617321133613586,
        0.00025443985941819847
      ],
      "type": "VEC4"
    },
    {
      "bufferView": 6,
      "byteOffset": 12548,
      "componentType": 5126,
      "count": 209,
      "max": [
        8.708333015441895
      ],
      "min": [
        0.0416666679084301
      ],
      "type": "SCALAR"
    },
    {
      "bufferView": 8,
      "byteOffset": 33456,
      "componentType": 5126,
      "count": 209,
      "max": [
        0.31437477469444275,
        4.454327395819746e-08,
        1.208785107564836e-07,
        0.9552022814750671
      ],
      "min": [
        0.2959537208080292,
        -1.0022315422020256e-07,
        -2.089820441142365e-07,
        0.9492989778518677
      ],
      "type": "VEC4"
    },
    {
      "bufferView": 6,
      "byteOffset": 13384,
      "componentType": 5126,
      "count": 209,
      "max": [
        8.708333015441895
      ],
      "min": [
        0.0416666679084301
      ],
      "type": "SCALAR"
    },
    {
      "bufferView": 8,
      "byteOffset": 36800,
      "componentType": 5126,
      "count": 209,
      "max": [
        -0.009746008552610874,
        0.019520482048392296,
        0.007541343104094267,
        0.9998737573623657
      ],
      "min": [
        -0.01635604165494442,
        -0.018368743360042572,
        -0.027951134368777275,
        0.9993122220039368
      ],
      "type": "VEC4"
    },
    {
      "bufferView": 6,
      "byteOffset": 14220,
      "componentType": 5126,
      "count": 1,
      "max": [
        0.0416666679084301
      ],
      "min": [
        0.0416666679084301
      ],
      "type": "SCALAR"
    },
    {
      "bufferView": 8,
      "byteOffset": 40144,
      "componentType": 5126,
      "count": 1,
      "max": [
        0.6494473814964294,
        -8.616262903160532e-07,
        -1.104739908441843e-06,
        0.7604065537452698
      ],
      "min": [
        0.6494473814964294,
        -8.616262903160532e-07,
        -1.104739908441843e-06,
        0.7604065537452698
      ],
      "type": "VEC4"
    },
    {
      "bufferView": 6,
      "byteOffset": 14224,
      "componentType": 5126,
      "count": 209,
      "max": [
        8.708333015441895
      ],
      "min": [
        0.0416666679084301
      ],
      "type": "SCALAR"
    },
    {
      "bufferView": 7,
      "byteOffset": 12552,
      "componentType": 5126,
      "count": 209,
      "max": [
        8.819371032586787e-06,
        0.11782380938529968,
        0.05044201388955116
      ],
      "min": [
        -2.9847980840713717e-05,
        0.11774120479822159,
        0.04988834261894226
      ],
      "type": "VEC3"
    },
    {
      "bufferView": 6,
      "byteOffset": 15060,
      "componentType": 5126,
      "count": 209,
      "max": [
        8.708333015441895
      ],
      "min": [
        0.0416666679084301
      ],
      "type": "SCALAR"
    },
    {
      "bufferView": 8,
      "byteOffset": 40160,
      "componentType": 5126,
      "count": 209,
      "max": [
        0.03132824972271919,
        0.032639890909194946,
        0.014268454164266586,
        0.9997240304946899
      ],
      "min": [
        0.01807238534092903,
        -0.021531973034143448,
        -0.012648857198655605,
        0.9992237091064453
      ],
      "type": "VEC4"
    },
    {
      "bufferView": 6,
      "byteOffset": 15896,
      "componentType": 5126,
      "count": 209,
      "max": [
        8.708333015441895
      ],
      "min": [
        0.0416666679084301
      ],
      "type": "SCALAR"
    },
    {
      "bufferView": 7,
      "byteOffset": 15060,
      "componentType": 5126,
      "count": 209,
      "max": [
        0.0008747554966248572,
        0.14895541965961456,
        -0.0030808239243924618
      ],
      "min": [
        -0.0013625758001580834,
        0.1486010104417801,
        -0.005128090735524893
      ],
      "type": "VEC3"
    },
    {
      "bufferView": 6,
      "byteOffset": 16732,
      "componentType": 5126,
      "count": 209,
      "max": [
        8.708333015441895
      ],
      "min": [
        0.0416666679084301
      ],
      "type": "SCALAR"
    },
    {
      "bufferView": 8,
      "byteOffset": 43504,
      "componentType": 5126,
      "count": 209,
      "max": [
        0.02599363587796688,
        0.03891855850815773,
        0.029006699100136757,
        0.9998431205749512
      ],
      "min": [
        0.012393525801599026,
        -0.025798136368393898,
        -0.03730417415499687,
        0.9984689354896545
      ],
      "type": "VEC4"
    },
    {
      "bufferView": 6,
      "byteOffset": 17568,
      "componentType": 5126,
      "count": 209,
      "max": [
        8.708333015441895
      ],
      "min": [
        0.0416666679084301
      ],
      "type": "SCALAR"
    },
    {
      "bufferView": 7,
      "byteOffset": 17568,
      "componentType": 5126,
      "count": 209,
      "max": [
        0.00248894514515996,
        0.1517820507287979,
        0.005290019325911999
      ],
      "min": [
        -0.004388993140310049,
        0.1496073305606842,
        0.0028752514626830816
      ],
      "type": "VEC3"
    },
    {
      "bufferView": 6,
      "byteOffset": 18404,
      "componentType": 5126,
      "count": 209,
      "max": [
        8.708333015441895
      ],
      "min": [
        0.0416666679084301
      ],
      "type": "SCALAR"
    },
    {
      "bufferView": 8,
      "byteOffset": 46848,
      "componentType": 5126,
      "count": 209,
      "max": [
        -0.9166443943977356,
        0.042899735271930695,
        0.039464935660362244,
        0.39912787079811096
      ],
      "min": [
        -0.9323605895042419,
        -0.02827172540128231,
        -0.025043480098247528,
        0.3567994236946106
      ],
      "type": "VEC4"
    },
    {
      "bufferView": 6,
      "byteOffset": 19240,
      "componentType": 5126,
      "count": 209,
      "max": [
        8.708333015441895
      ],
      "min": [
        0.0416666679084301
      ],
      "type": "SCALAR"
    },
    {
      "bufferView": 8,
      "byteOffset": 50192,
      "componentType": 5126,
      "count": 209,
      "max": [
        0.9995646476745605,
        1.4003077808411035e-07,
        0.02777823992073536,
        0.1458614319562912
      ],
      "min": [
        0.9882517457008362,
        -0.03621269762516022,
        -9.54122398866275e-08,
        0.02950443886220455
      ],
      "type": "VEC4"
    },
    {
      "bufferView": 6,
      "byteOffset": 20076,
      "componentType": 5126,
      "count": 1,
      "max": [
        0.0416666679084301
      ],
      "min": [
        0.0416666679084301
      ],
      "type": "SCALAR"
    },
    {
      "bufferView": 7,
      "byteOffset": 20076,
      "componentType": 5126,
      "count": 1,
      "max": [
        0.9999996423721313,
        0.9999995231628418,
        0.9999988675117493
      ],
      "min": [
        0.9999996423721313,
        0.9999995231628418,
        0.9999988675117493
      ],
      "type": "VEC3"
    },
    {
      "bufferView": 6,
      "byteOffset": 20080,
      "componentType": 5126,
      "count": 209,
      "max": [
        8.708333015441895
      ],
      "min": [
        0.0416666679084301
      ],
      "type": "SCALAR"
    },
    {
      "bufferView": 8,
      "byteOffset": 53536,
      "componentType": 5126,
      "count": 209,
      "max": [
        0.3749102056026459,
        0.8729425072669983,
        0.01589077338576317,
        0.4557034373283386
      ],
      "min": [
        0.30682405829429626,
        0.8065381050109863,
        -0.035679303109645844,
        0.3497519791126251
      ],
      "type": "VEC4"
    },
    {
      "bufferView": 6,
      "byteOffset": 20916,
      "componentType": 5126,
      "count": 209,
      "max": [
        8.708333015441895
      ],
      "min": [
        0.0416666679084301
      ],
      "type": "SCALAR"
    },
    {
      "bufferView": 8,
      "byteOffset": 56880,
      "componentType": 5126,
      "count": 209,
      "max": [
        -0.03543531894683838,
        -0.0463239923119545,
        0.012245908379554749,
        0.9972106218338013
      ],
      "min": [
        -0.0665869489312172,
        -0.17818155884742737,
        -0.055966854095458984,
        0.9828810691833496
      ],
      "type": "VEC4"
    },
    {
      "bufferView": 6,
      "byteOffset": 21752,
      "componentType": 5126,
      "count": 209,
      "max": [
        8.708333015441895
      ],
      "min": [
        0.0416666679084301
      ],
      "type": "SCALAR"
    },
    {
      "bufferView": 8,
      "byteOffset": 60224,
      "componentType": 5126,
      "count": 209,
      "max": [
        0.375093013048172,
        -0.8701367378234863,
        0.06844957172870636,
        0.346795916557312
      ],
      "min": [
        0.2787145972251892,
        -0.923547625541687,
        -0.0440063402056694,
        0.2502181828022003
      ],
      "type": "VEC4"
    },
    {
      "bufferView": 6,
      "byteOffset": 22588,
      "componentType": 5126,
      "count": 209,
      "max": [
        8.708333015441895
      ],
      "min": [
        0.0416666679084301
      ],
      "type": "SCALAR"
    },
    {
      "bufferView": 8,
      "byteOffset": 63568,
      "componentType": 5126,
      "count": 209,
      "max": [
        0.045508332550525665,
        0.04862334579229355,
        0.10190191119909286,
        0.9984955191612244
      ],
      "min": [
        -0.05164799094200134,
        -0.0598142184317112,
        0.02503633126616478,
        0.9928033947944641
      ],
      "type": "VEC4"
    },
    {
      "bufferView": 6,
      "byteOffset": 23424,
      "componentType": 5126,
      "count": 209,
      "max": [
        8.708333015441895
      ],
      "min": [
        0.0416666679084301
      ],
      "type": "SCALAR"
    },
    {
      "bufferView": 8,
      "byteOffset": 66912,
      "componentType": 5126,
      "count": 209,
      "max": [
        0.8277758955955505,
        -0.038306836038827896,
        -0.022704025730490685,
        0.5750519037246704
      ],
      "min": [
        0.8152239322662354,
        -0.05796949192881584,
        -0.03799956291913986,
        0.559260904788971
      ],
      "type": "VEC4"
    },
    {
      "bufferView": 6,
      "byteOffset": 24260,
      "componentType": 5126,
      "count": 209,
      "max": [
        8.708333015441895
      ],
      "min": [
        0.0416666679084301
      ],
      "type": "SCALAR"
    },
    {
      "bufferView": 8,
      "byteOffset": 70256,
      "componentType": 5126,
      "count": 209,
      "max": [
        -0.45107969641685486,
        3.3182505632112225e-08,
        1.7017352149650833e-07,
        0.8924837112426758
      ],
      "min": [
        -0.45685359835624695,
        -1.6926531998251448e-07,
        -5.132368485760708e-08,
        0.8895419239997864
      ],
      "type": "VEC4"
    },
    {
      "bufferView": 6,
      "byteOffset": 25096,
      "componentType": 5126,
      "count": 209,
      "max": [
        8.708333015441895
      ],
      "min": [
        0.0416666679084301
      ],
      "type": "SCALAR"
    },
    {
      "bufferView": 8,
      "byteOffset": 73600,
      "componentType": 5126,
      "count": 209,
      "max": [
        0.35289499163627625,
        -0.014906084164977074,
        0.02657240442931652,
        0.9360191226005554
      ],
      "min": [
        0.3505852520465851,
        -0.015884092077612877,
        0.02639930509030819,
        0.9351711273193359
      ],
      "type": "VEC4"
    },
    {
      "bufferView": 6,
      "byteOffset": 25932,
      "componentType": 5126,
      "count": 209,
      "max": [
        8.708333015441895
      ],
      "min": [
        0.0416666679084301
      ],
      "type": "SCALAR"
    },
    {
      "bufferView": 8,
      "byteOffset": 76944,
      "componentType": 5126,
      "count": 209,
      "max": [
        -0.07096388936042786,
        0.06685379892587662,
        -0.035148151218891144,
        0.9946094751358032
      ],
      "min": [
        -0.07815587520599365,
        0.066647469997406,
        -0.03651890158653259,
        0.9940413236618042
      ],
      "type": "VEC4"
    },
    {
      "bufferView": 6,
      "byteOffset": 26768,
      "componentType": 5126,
      "count": 209,
      "max": [
        8.708333015441895
      ],
      "min": [
        0.0416666679084301
      ],
      "type": "SCALAR"
    },
    {
      "bufferView": 8,
      "byteOffset": 80288,
      "componentType": 5126,
      "count": 209,
      "max": [
        0.8266779184341431,
        0.06244279816746712,
        0.041574809700250626,
        0.5760709643363953
      ],
      "min": [
        0.814020574092865,
        0.04282378777861595,
        0.026064535602927208,
        0.5603896975517273
      ],
      "type": "VEC4"
    },
    {
      "bufferView": 6,
      "byteOffset": 27604,
      "componentType": 5126,
      "count": 209,
      "max": [
        8.708333015441895
      ],
      "min": [
        0.0416666679084301
      ],
      "type": "SCALAR"
    },
    {
      "bufferView": 8,
      "byteOffset": 83632,
      "componentType": 5126,
      "count": 209,
      "max": [
        -0.4504949748516083,
        7.834223225700043e-08,
        2.4139623633345764e-07,
        0.8927789926528931
      ],
      "min": [
        -0.4563618004322052,
        -1.150727015897246e-07,
        2.1798234328684885e-08,
        0.8897943496704102
      ],
      "type": "VEC4"
    },
    {
      "bufferView": 6,
      "byteOffset": 28440,
      "componentType": 5126,
      "count": 209,
      "max": [
        8.708333015441895
      ],
      "min": [
        0.0416666679084301
      ],
      "type": "SCALAR"
    },
    {
      "bufferView": 8,
      "byteOffset": 86976,
      "componentType": 5126,
      "count": 209,
      "max": [
        0.35269689559936523,
        0.016101831570267677,
        -0.026405300945043564,
        0.936102569103241
      ],
      "min": [
        0.3503521680831909,
        0.015149540267884731,
        -0.026572715491056442,
        0.9352421164512634
      ],
      "type": "VEC4"
    },
    {
      "bufferView": 6,
      "byteOffset": 29276,
      "componentType": 5126,
      "count": 209,
      "max": [
        8.708333015441895
      ],
      "min": [
        0.0416666679084301
      ],
      "type": "SCALAR"
    },
    {
      "bufferView": 8,
      "byteOffset": 90320,
      "componentType": 5126,
      "count": 209,
      "max": [
        -0.06986001878976822,
        -0.06666934490203857,
        0.036208417266607285,
        0.9946944713592529
      ],
      "min": [
        -0.07699421048164368,
        -0.06688065826892853,
        0.0348544642329216,
        0.9941434860229492
      ],
      "type": "VEC4"
    },
    {
      "bufferView": 6,
      "byteOffset": 30112,
      "componentType": 5126,
      "count": 209,
      "max": [
        8.708333015441895
      ],
      "min": [
        0.0416666679084301
      ],
      "type": "SCALAR"
    },
    {
      "bufferView": 7,
      "byteOffset": 20088,
      "componentType": 5126,
      "count": 209,
      "max": [
        -1.7040476905094692e-06,
        0.20159852504730225,
        -0.0019799186848104
      ],
      "min": [
        -1.7241566183656687e-06,
        0.19856500625610352,
        -0.0046787625178694725
      ],
      "type": "VEC3"
    },
    {
      "bufferView": 6,
      "byteOffset": 30948,
      "componentType": 5126,
      "count": 209,
      "max": [
        8.708333015441895
      ],
      "min": [
        0.0416666679084301
      ],
      "type": "SCALAR"
    },
    {
      "bufferView": 8,
      "byteOffset": 93664,
      "componentType": 5126,
      "count": 209,
      "max": [
        0.44295328855514526,
        5.588841759163188e-06,
        -1.5653514537916635e-06,
        0.9026704430580139
      ],
      "min": [
        0.4303325116634369,
        5.260178113530856e-06,
        -1.7988113540923223e-06,
        0.8965446949005127
      ],
      "type": "VEC4"
    }
  ],
  "animations": [
    {
      "channels": [
        {
          "sampler": 0,
          "target": {
            "node": 9,
            "path": "translation"
          }
        },
        {
          "sampler": 1,
          "target": {
            "node": 9,
            "path": "rotation"
          }
        },
        {
          "sampler": 2,
          "target": {
            "node": 10,
            "path": "translation"
          }
        },
        {
          "sampler": 3,
          "target": {
            "node": 10,
            "path": "rotation"
          }
        },
        {
          "sampler": 4,
          "target": {
            "node": 11,
            "path": "translation"
          }
        },
        {
          "sampler": 5,
          "target": {
            "node": 11,
            "path": "rotation"
          }
        },
        {
          "sampler": 6,
          "target": {
            "node": 12,
            "path": "translation"
          }
        },
        {
          "sampler": 7,
          "target": {
            "node": 12,
            "path": "rotation"
          }
        },
        {
          "sampler": 8,
          "target": {
            "node": 13,
            "path": "translation"
          }
        },
        {
          "sampler": 9,
          "target": {
            "node": 13,
            "path": "rotation"
          }
        },
        {
          "sampler": 10,
          "target": {
            "node": 14,
            "path": "translation"
          }
        },
        {
          "sampler": 11,
          "target": {
            "node": 14,
            "path": "rotation"
          }
        },
        {
          "sampler": 12,
          "target": {
            "node": 16,
            "path": "rotation"
          }
        },
        {
          "sampler": 13,
          "target": {
            "node": 17,
            "path": "rotation"
          }
        },
        {
          "sampler": 14,
          "target": {
            "node": 18,
            "path": "rotation"
          }
        },
        {
          "sampler": 15,
          "target": {
            "node": 19,
            "path": "rotation"
          }
        },
        {
          "sampler": 16,
          "target": {
            "node": 22,
            "path": "rotation"
          }
        },
        {
          "sampler": 17,
          "target": {
            "node": 23,
            "path": "rotation"
          }
        },
        {
          "sampler": 18,
          "target": {
            "node": 24,
            "path": "rotation"
          }
        },
        {
          "sampler": 19,
          "target": {
            "node": 25,
            "path": "rotation"
          }
        },
        {
          "sampler": 20,
          "target": {
            "node": 27,
            "path": "translation"
          }
        },
        {
          "sampler": 21,
          "target": {
            "node": 27,
            "path": "rotation"
          }
        },
        {
          "sampler": 22,
          "target": {
            "node": 28,
            "path": "translation"
          }
        },
        {
          "sampler": 23,
          "target": {
            "node": 28,
            "path": "rotation"
          }
        },
        {
          "sampler": 24,
          "target": {
            "node": 29,
            "path": "translation"
          }
        },
        {
          "sampler": 25,
          "target": {
            "node": 29,
            "path": "rotation"
          }
        },
        {
          "sampler": 26,
          "target": {
            "node": 30,
            "path": "rotation"
          }
        },
        {
          "sampler": 27,
          "target": {
            "node": 31,
            "path": "scale"
          }
        },
        {
          "sampler": 28,
          "target": {
            "node": 32,
            "path": "rotation"
          }
        },
        {
          "sampler": 29,
          "target": {
            "node": 33,
            "path": "rotation"
          }
        },
        {
          "sampler": 30,
          "target": {
            "node": 35,
            "path": "rotation"
          }
        },
        {
          "sampler": 31,
          "target": {
            "node": 36,
            "path": "rotation"
          }
        },
        {
          "sampler": 32,
          "target": {
            "node": 38,
            "path": "rotation"
          }
        },
        {
          "sampler": 33,
          "target": {
            "node": 39,
            "path": "rotation"
          }
        },
        {
          "sampler": 34,
          "target": {
            "node": 40,
            "path": "rotation"
          }
        },
        {
          "sampler": 35,
          "target": {
            "node": 41,
            "path": "rotation"
          }
        },
        {
          "sampler": 36,
          "target": {
            "node": 44,
            "path": "rotation"
          }
        },
        {
          "sampler": 37,
          "target": {
            "node": 45,
            "path": "rotation"
          }
        },
        {
          "sampler": 38,
          "target": {
            "node": 46,
            "path": "rotation"
          }
        },
        {
          "sampler": 39,
          "target": {
            "node": 47,
            "path": "rotation"
          }
        },
        {
          "sampler": 40,
          "target": {
            "node": 50,
            "path": "translation"
          }
        },
        {
          "sampler": 41,
          "target": {
            "node": 50,
            "path": "rotation"
          }
        }
      ],
      "name": "IdleC",
      "samplers": [
        {
          "input": 7,
          "interpolation": "LINEAR",
          "output": 8
        },
        {
          "input": 9,
          "interpolation": "LINEAR",
          "output": 10
        },
        {
          "input": 11,
          "interpolation": "LINEAR",
          "output": 12
        },
        {
          "input": 13,
          "interpolation": "LINEAR",
          "output": 14
        },
        {
          "input": 15,
          "interpolation": "LINEAR",
          "output": 16
        },
        {
          "input": 17,
          "interpolation": "LINEAR",
          "output": 18
        },
        {
          "input": 19,
          "interpolation": "LINEAR",
          "output": 20
        },
        {
          "input": 21,
          "interpolation": "LINEAR",
          "output": 22
        },
        {
          "input": 23,
          "interpolation": "LINEAR",
          "output": 24
        },
        {
          "input": 25,
          "interpolation": "LINEAR",
          "output": 26
        },
        {
          "input": 27,
          "interpolation": "LINEAR",
          "output": 28
        },
        {
          "input": 29,
          "interpolation": "LINEAR",
          "output": 30
        },
        {
          "input": 31,
          "interpolation": "LINEAR",
          "output": 32
        },
        {
          "input": 33,
          "interpolation": "LINEAR",
          "output": 34
        },
        {
          "input": 35,
          "interpolation": "LINEAR",
          "output": 36
        },
        {
          "input": 37,
          "interpolation": "LINEAR",
          "output": 38
        },
        {
          "input": 39,
          "interpolation": "LINEAR",
          "output": 40
        },
        {
          "input": 41,
          "interpolation": "LINEAR",
          "output": 42
        },
        {
          "input": 43,
          "interpolation": "LINEAR",
          "output": 44
        },
        {
          "input": 45,
          "interpolation": "LINEAR",
          "output": 46
        },
        {
          "input": 47,
          "interpolation": "LINEAR",
          "output": 48
        },
        {
          "input": 49,
          "interpolation": "LINEAR",
          "output": 50
        },
        {
          "input": 51,
          "interpolation": "LINEAR",
          "output": 52
        },
        {
          "input": 53,
          "interpolation": "LINEAR",
          "output": 54
        },
        {
          "input": 55,
          "interpolation": "LINEAR",
          "output": 56
        },
        {
          "input": 57,
          "interpolation": "LINEAR",
          "output": 58
        },
        {
          "input": 59,
          "interpolation": "LINEAR",
          "output": 60
        },
        {
          "input": 61,
          "interpolation": "LINEAR",
          "output": 62
        },
        {
          "input": 63,
          "interpolation": "LINEAR",
          "output": 64
        },
        {
          "input": 65,
          "interpolation": "LINEAR",
          "output": 66
        },
        {
          "input": 67,
          "interpolation": "LINEAR",
          "output": 68
        },
        {
          "input": 69,
          "interpolation": "LINEAR",
          "output": 70
        },
        {
          "input": 71,
          "interpolation": "LINEAR",
          "output": 72
        },
        {
          "input": 73,
          "interpolation": "LINEAR",
          "output": 74
        },
        {
          "input": 75,
          "interpolation": "LINEAR",
          "output": 76
        },
        {
          "input": 77,
          "interpolation": "LINEAR",
          "output": 78
        },
        {
          "input": 79,
          "interpolation": "LINEAR",
          "output": 80
        },
        {
          "input": 81,
          "interpolation": "LINEAR",
          "output": 82
        },
        {
          "input": 83,
          "interpolation": "LINEAR",
          "output": 84
        },
        {
          "input": 85,
          "interpolation": "LINEAR",
          "output": 86
        },
        {
          "input": 87,
          "interpolation": "LINEAR",
          "output": 88
        },
        {
          "input": 89,
          "interpolation": "LINEAR",
          "output": 90
        }
      ]
    }
  ],
  "asset": {
    "extras": {
      "author": "kenchoo (https://sketchfab.com/kenchoo)",
      "license": "SKETCHFAB Standard (https://sketchfab.com/licenses)",
      "source": "https://sketchfab.com/3d-models/baby-tapir-test-989f4b1945f844eca86e536d88fe97cf",
      "title": "Baby Tapir Test"
    },
    "generator": "Sketchfab-16.7.0",
    "version": "2.0"
  },
  "bufferViews": [
    {
      "buffer": 0,
      "byteLength": 42224,
      "byteStride": 8,
      "name": "shortBufferViews",
      "target": 34962
    },
    {
      "buffer": 0,
      "byteLength": 102204,
      "byteOffset": 42224,
      "name": "floatBufferViews",
      "target": 34963
    },
    {
      "buffer": 0,
      "byteLength": 42224,
      "byteOffset": 144428,
      "byteStride": 8,
      "name": "floatBufferViews",
      "target": 34962
    },
    {
      "buffer": 0,
      "byteLength": 126672,
      "byteOffset": 186652,
      "byteStride": 12,
      "name": "floatBufferViews",
      "target": 34962
    },
    {
      "buffer": 0,
      "byteLength": 84448,
      "byteOffset": 313324,
      "byteStride": 16,
      "name": "floatBufferViews",
      "target": 34962
    },
    {
      "buffer": 0,
      "byteLength": 2816,
      "byteOffset": 397772,
      "name": "floatBufferViews"
    },
    {
      "buffer": 0,
      "byteLength": 31784,
      "byteOffset": 400588,
      "name": "floatBufferViews"
    },
    {
      "buffer": 0,
      "byteLength": 22596,
      "byteOffset": 432372,
      "byteStride": 12,
      "name": "floatBufferViews"
    },
    {
      "buffer": 0,
      "byteLength": 97008,
      "byteOffset": 454968,
      "byteStride": 16,
      "name": "floatBufferViews"
    }
  ],
  "buffers": [
    {
      "byteLength": 551976,
      "uri": "scene.bin"
    }
  ],
  "images": [
    {
      "uri": "textures/Material_baseColor.png"
    }
  ],
  "materials": [
    {
      "doubleSided": true,
      "name": "Material",
      "pbrMetallicRoughness": {
        "baseColorTexture": {
          "index": 0
        },
        "metallicFactor": 0.0,
        "roughnessFactor": 0.5
      }
    }
  ],
  "meshes": [
    {
      "name": "Object_0",
      "primitives": [
        {
          "attributes": {
            "JOINTS_0": 5,
            "NORMAL": 1,
            "POSITION": 0,
            "TEXCOORD_0": 2,
            "WEIGHTS_0": 6
          },
          "indices": 3,
          "material": 0,
          "mode": 4
        }
      ]
    }
  ],
  "nodes": [
    {
      "children": [
        1
      ],
      "matrix": [
        1.0,
        0.0,
        0.0,
        0.0,
        0.0,
        2.220446049250313e-16,
        -1.0,
        0.0,
        0.0,
        1.0,
        2.220446049250313e-16,
        0.0,
        0.0,
        0.0,
        0.0,
        1.0
      ],
      "name": "Sketchfab_model"
    },
    {
      "children": [
        2
      ],
      "name": "root"
    },
    {
      "children": [
        3
      ],
      "matrix": [
        1.0,
        0.0,
        0.0,
        0.0,
        0.0,
        2.220446049250313e-16,
        1.0,
        0.0,
        0.0,
        -1.0,
        2.220446049250313e-16,
        0.0,
        0.0,
        0.0,
        0.0,
        1.0
      ],
      "name": "GLTF_SceneRootNode"
    },
    {
      "children": [
        4
      ],
      "name": "armature_44"
    },
    {
      "children": [
        5,
        7,
        6
      ],
      "name": "GLTF_created_0"
    },
    {
      "children": [
        8
      ],
      "name": "GLTF_created_0_rootJoint"
    },
    {
      "name": "babytapirremesh_43"
    },
    {
      "mesh": 0,
      "name": "Object_7",
      "skin": 0
    },
    {
      "children": [
        9
      ],
      "name": "MAINSHJnt_42",
      "rotation": [
        -5.489908289746381e-06,
        -1.2562395568238571e-08,
        6.904530793676658e-14,
        1.0
      ]
    },
    {
      "children": [
        10,
        38,
        44,
        50
      ],
      "name": "ROOTSHJnt_41",
      "rotation": [
        -4.038090082758572e-06,
        0.7071108222007751,
        -0.7071027159690857,
        3.9309175008384045e-06
      ],
      "translation": [
        -6.990798162576084e-09,
        0.6828020811080933,
        -0.27823641896247864
      ]
    },
    {
      "children": [
        11
      ],
      "name": "Spine_01SHJnt_27",
      "rotation": [
        0.9993481636047363,
        2.0797254762783268e-07,
        -5.656604116666131e-06,
        0.036102697253227234
      ],
      "scale": [
        1.0,
        0.9999999403953552,
        1.0000067949295044
      ],
      "translation": [
        -1.5648721500838292e-06,
        -0.08629315346479416,
        0.0050071002915501595
      ]
    },
    {
      "children": [
        12
      ],
      "name": "Spine_02SHJnt_26",
      "rotation": [
        -1.4849008948658593e-05,
        -1.0830460972499623e-08,
        -8.768223835886602e-08,
        1.0
      ],
      "scale": [
        1.0,
        0.9999999403953552,
        0.9999999403953552
      ],
      "translation": [
        4.516433449452961e-09,
        0.14112146198749542,
        0.005078761372715235
      ]
    },
    {
      "children": [
        13
      ],
      "name": "Spine_03SHJnt_25",
      "rotation": [
        7.020291548087698e-08,
        -0.9993476271629333,
        -0.03611759468913078,
        4.3682874206751876e-08
      ],
      "scale": [
        1.0,
        0.9999999403953552,
        1.0
      ],
      "translation": [
        -1.92311091495867e-08,
        0.14141862094402313,
        0.002583647146821022
      ]
    },
    {
      "children": [
        14
      ],
      "name": "Spine_04SHJnt_24",
      "rotation": [
        -1.1074518716349194e-14,
        -7.911170740726448e-08,
        -6.714499534155038e-08,
        1.0
      ],
      "translation": [
        1.3956085176403121e-09,
        0.14117571711540222,
        -0.010664701461791992
      ]
    },
    {
      "children": [
        15,
        21,
        27
      ],
      "name": "Spine_TopSHJnt_23",
      "rotation": [
        3.4372894219814043e-07,
        -2.3841900542720396e-07,
        1.5723655558998184e-14,
        1.0
      ],
      "translation": [
        -1.9122538219562557e-08,
        0.14117564260959625,
        -0.007091641426086426
      ]
    },
    {
      "children": [
        16
      ],
      "name": "l_Clavicle_01_01SHJnt_5",
      "rotation": [
        0.7071062922477722,
        1.5691958310526388e-07,
        -2.011700246384862e-07,
        0.7071073651313782
      ],
      "translation": [
        0.08670295029878616,
        4.8164071841938494e-08,
        -1.3189033154503704e-07
      ]
    },
    {
      "children": [
        17
      ],
      "name": "l_FrontLeg_HipSHJnt_4",
      "rotation": [
        0.014375214464962482,
        -0.9790006875991821,
        -0.2033400684595108,
        0.0020027514547109604
      ],
      "scale": [
        1.0,
        1.000000238418579,
        1.0
      ],
      "translation": [
        0.03164959326386452,
        0.10204392671585083,
        -0.04938088357448578
      ]
    },
    {
      "children": [
        18
      ],
      "name": "l_FrontLeg_KneeSHJnt_3",
      "rotation": [
        0.21808572113513947,
        1.590835836395854e-07,
        -6.370743221850717e-08,
        0.9759296178817749
      ],
      "translation": [
        1.0302755981683731e-08,
        0.1721300482749939,
        -3.073364496231079e-08
      ]
    },
    {
      "children": [
        19
      ],
      "name": "l_FrontLeg_AnkleSHJnt_2",
      "rotation": [
        -0.015060457400977612,
        0.0011805209796875715,
        0.014466819353401661,
        0.9997812509536743
      ],
      "scale": [
        0.9999999403953552,
        1.0,
        0.9999999403953552
      ],
      "translation": [
        3.3178366720676422e-09,
        0.29020974040031433,
        -1.1411611922085285e-07
      ]
    },
    {
      "children": [
        20
      ],
      "name": "l_FrontLeg_BallSHJnt_1",
      "rotation": [
        0.7071054577827454,
        -1.543024609418353e-06,
        -1.4176550848787883e-06,
        0.7071080803871155
      ],
      "scale": [
        1.0,
        0.9999999403953552,
        0.9999998807907104
      ],
      "translation": [
        1.6912338196561905e-07,
        0.09844639897346497,
        0.023905131965875626
      ]
    },
    {
      "name": "l_FrontLeg_ToeSHJnt_0",
      "rotation": [
        -6.129080531991349e-08,
        -6.717256439969788e-08,
        -9.193603034418629e-08,
        1.0
      ],
      "translation": [
        -7.992316142235723e-08,
        0.11655603349208832,
        -0.03452237322926521
      ]
    },
    {
      "children": [
        22
      ],
      "name": "r_Clavicle_01_01SHJnt_11",
      "rotation": [
        0.7071062922477722,
        1.8425990333525988e-07,
        -1.7382990336045623e-07,
        0.7071073651313782
      ],
      "scale": [
        1.0,
        0.9999998807907104,
        0.9999999403953552
      ],
      "translation": [
        -0.08670293539762497,
        -1.9332127010329714e-08,
        -2.299319845633363e-08
      ]
    },
    {
      "children": [
        23
      ],
      "name": "r_FrontLeg_HipSHJnt_10",
      "rotation": [
        0.01437532901763916,
        0.9790006279945374,
        0.20334003865718842,
        0.002002634108066559
      ],
      "scale": [
        1.0,
        0.9999998807907104,
        1.0000001192092896
      ],
      "translation": [
        -0.0316496267914772,
        0.10204394906759262,
        -0.04938088729977608
      ]
    },
    {
      "children": [
        24
      ],
      "name": "r_FrontLeg_KneeSHJnt_9",
      "rotation": [
        0.21808579564094543,
        -3.322131547633944e-08,
        3.1154303581359954e-09,
        0.9759296178817749
      ],
      "scale": [
        1.0,
        1.0,
        0.9999999403953552
      ],
      "translation": [
        -5.296897143125534e-09,
        0.17212988436222076,
        2.782326191663742e-08
      ]
    },
    {
      "children": [
        25
      ],
      "name": "r_FrontLeg_AnkleSHJnt_8",
      "rotation": [
        -0.015060419216752052,
        -0.0011805358808487654,
        -0.014465264976024628,
        0.9997812509536743
      ],
      "scale": [
        0.9999998807907104,
        0.9999999403953552,
        0.9999998807907104
      ],
      "translation": [
        5.820766091346741e-10,
        0.2902098596096039,
        -5.611218512058258e-08
      ]
    },
    {
      "children": [
        26
      ],
      "name": "r_FrontLeg_BallSHJnt_7",
      "rotation": [
        0.7071054577827454,
        -1.4581962659576675e-06,
        -1.5367261312349e-06,
        0.707108199596405
      ],
      "translation": [
        1.409743219937809e-07,
        0.09844642877578735,
        0.023905107751488686
      ]
    },
    {
      "name": "r_FrontLeg_ToeSHJnt_6",
      "rotation": [
        1.5728175326804733e-14,
        -1.0526399751853432e-09,
        -3.064536358010628e-08,
        1.0
      ],
      "translation": [
        -9.685404478432247e-08,
        0.11655601859092712,
        -0.03452237695455551
      ]
    },
    {
      "children": [
        28
      ],
      "name": "Neck_01SHJnt_22",
      "rotation": [
        0.02377050742506981,
        -1.0085720987262903e-06,
        1.3224028982961045e-08,
        0.9997175335884094
      ],
      "scale": [
        1.0,
        0.9999999403953552,
        1.0
      ],
      "translation": [
        9.819444812819711e-09,
        0.1177864670753479,
        0.04992141202092171
      ]
    },
    {
      "children": [
        29
      ],
      "name": "Neck_02SHJnt_21",
      "rotation": [
        0.01981346309185028,
        8.548695973331633e-07,
        -5.514692347219352e-08,
        0.9998037219047546
      ],
      "scale": [
        1.0,
        1.0,
        0.9999999403953552
      ],
      "translation": [
        -1.5402129349695315e-08,
        0.14873020350933075,
        -0.004002993926405907
      ]
    },
    {
      "children": [
        30,
        32,
        35
      ],
      "name": "Neck_TopSHJnt_20",
      "rotation": [
        -0.9267839193344116,
        2.0795687305508181e-07,
        1.7604982360808208e-07,
        0.37559494376182556
      ],
      "scale": [
        1.0,
        0.9999999403953552,
        1.0
      ],
      "translation": [
        -8.543651119907736e-09,
        0.15082143247127533,
        0.004099257290363312
      ]
    },
    {
      "children": [
        31
      ],
      "name": "Head_JawSHJnt_13",
      "rotation": [
        0.9950446486473083,
        -4.634910411027704e-08,
        -8.052377609146788e-08,
        0.0994296744465828
      ],
      "scale": [
        1.0,
        0.9999998211860657,
        0.9999949336051941
      ],
      "translation": [
        1.8296958614882897e-08,
        -0.052465375512838364,
        -0.0633324384689331
      ]
    },
    {
      "name": "Head_JawEndSHJnt_12",
      "rotation": [
        -0.696891725063324,
        0.11975634098052979,
        -0.696892261505127,
        0.11975617706775665
      ],
      "scale": [
        0.9999999403953552,
        0.9999999403953552,
        1.0000004768371582
      ],
      "translation": [
        3.3447236091888044e-08,
        0.19025668501853943,
        0.05747374892234802
      ]
    },
    {
      "children": [
        33
      ],
      "name": "l_Ear_01_01SHJnt_16",
      "rotation": [
        0.33969470858573914,
        0.8729424476623535,
        0.01589074917137623,
        0.3497520387172699
      ],
      "scale": [
        0.9999998807907104,
        0.9999998807907104,
        0.9999999403953552
      ],
      "translation": [
        0.13550253212451935,
        0.41581031680107117,
        -0.03340698033571243
      ]
    },
    {
      "children": [
        34
      ],
      "name": "l_Ear_01_02SHJnt_15",
      "rotation": [
        -0.05069349706172943,
        -0.04632403329014778,
        -0.02924620732665062,
        0.9972106218338013
      ],
      "scale": [
        0.9999999403953552,
        0.9999999403953552,
        1.0
      ],
      "translation": [
        0.00015141069889068604,
        0.0419430285692215,
        -0.0002365708351135254
      ]
    },
    {
      "name": "l_Ear_01_03SHJnt_14",
      "rotation": [
        -0.03100406564772129,
        -0.029059071093797684,
        -0.014895547181367874,
        0.9989857077598572
      ],
      "scale": [
        1.0,
        1.0000001192092896,
        1.0
      ],
      "translation": [
        0.0017508454620838165,
        0.05148106813430786,
        -0.0033885687589645386
      ]
    },
    {
      "children": [
        36
      ],
      "name": "r_Ear_01_01SHJnt_19",
      "rotation": [
        0.3433714807033539,
        -0.8726915717124939,
        -0.015430206432938576,
        0.34679582715034485
      ],
      "scale": [
        0.9999999403953552,
        1.0,
        0.9999998807907104
      ],
      "translation": [
        -0.1347908079624176,
        0.42366689443588257,
        -0.0338534340262413
      ]
    },
    {
      "children": [
        37
      ],
      "name": "r_Ear_01_02SHJnt_18",
      "rotation": [
        -0.05049283429980278,
        0.04599422588944435,
        0.029590105637907982,
        0.9972258806228638
      ],
      "scale": [
        0.9999999403953552,
        0.9999998807907104,
        0.9999999403953552
      ],
      "translation": [
        -0.00015303492546081543,
        0.04194312542676926,
        -0.00023549795150756836
      ]
    },
    {
      "name": "r_Ear_01_03SHJnt_17",
      "rotation": [
        -0.030895743519067764,
        0.028887346386909485,
        0.015120879746973515,
        0.9989906549453735
      ],
      "scale": [
        0.9999999403953552,
        0.9999998807907104,
        0.9999998807907104
      ],
      "translation": [
        -0.0017750617116689682,
        0.05148078501224518,
        -0.0033761262893676758
      ]
    },
    {
      "children": [
        39
      ],
      "name": "l_HindLeg_HipSHJnt_33",
      "rotation": [
        0.8250179886817932,
        -0.0498616024851799,
        -0.03245384991168976,
        0.5619661211967468
      ],
      "scale": [
        1.0000001192092896,
        1.0,
        1.0000001192092896
      ],
      "translation": [
        -0.10316688567399979,
        0.09112285822629929,
        0.09521161764860153
      ]
    },
    {
      "children": [
        40
      ],
      "name": "l_HindLeg_Knee1SHJnt_32",
      "rotation": [
        -0.4518899619579315,
        -9.49874632283354e-08,
        1.2332218801702766e-08,
        0.8920736908912659
      ],
      "scale": [
        0.9999999403953552,
        0.9999998211860657,
        0.9999998807907104
      ],
      "translation": [
        2.6193447411060333e-08,
        0.13893499970436096,
        3.632158041000366e-08
      ]
    },
    {
      "children": [
        41
      ],
      "name": "l_HindLeg_Knee2SHJnt_31",
      "rotation": [
        0.35090896487236023,
        -0.015529926866292953,
        0.026572413742542267,
        0.9359036684036255
      ],
      "scale": [
        0.9999998807907104,
        0.9999999403953552,
        0.9999999403953552
      ],
      "translation": [
        1.9150320440530777e-08,
        0.23718176782131195,
        -1.2479722499847412e-07
      ]
    },
    {
      "children": [
        42
      ],
      "name": "l_HindLeg_AnkleSHJnt_30",
      "rotation": [
        -0.07525211572647095,
        0.0667029470205307,
        -0.035625625401735306,
        0.9942931532859802
      ],
      "scale": [
        1.0,
        1.0000001192092896,
        1.0
      ],
      "translation": [
        1.909211277961731e-08,
        0.214638814330101,
        -3.3993273973464966e-08
      ]
    },
    {
      "children": [
        43
      ],
      "name": "l_HindLeg_BallSHJnt_29",
      "rotation": [
        0.7071064710617065,
        6.296991728049761e-08,
        1.7482427949744306e-07,
        0.7071071863174438
      ],
      "translation": [
        7.558487169490036e-09,
        0.046041518449783325,
        0.04029148817062378
      ]
    },
    {
      "name": "l_HindLeg_ToeSHJnt_28",
      "rotation": [
        -1.4049104102298315e-09,
        -4.969649580743862e-09,
        -1.633431736536295e-07,
        1.0
      ],
      "translation": [
        3.0481579926799895e-08,
        0.06841950118541718,
        -3.3527587817161475e-08
      ]
    },
    {
      "children": [
        45
      ],
      "name": "r_HindLeg_HipSHJnt_39",
      "rotation": [
        0.8250182271003723,
        0.049868155270814896,
        0.03244472295045853,
        0.5619657635688782
      ],
      "scale": [
        1.0,
        0.9999999403953552,
        0.9999998211860657
      ],
      "translation": [
        0.10316576063632965,
        0.09112285077571869,
        0.09520916640758514
      ]
    },
    {
      "children": [
        46
      ],
      "name": "r_HindLeg_Knee1SHJnt_38",
      "rotation": [
        -0.4518897831439972,
        -6.704420485448281e-08,
        7.614654862209136e-08,
        0.8920738101005554
      ],
      "scale": [
        1.0,
        0.9999999403953552,
        0.9999999403953552
      ],
      "translation": [
        1.1641532182693481e-09,
        0.13893498480319977,
        5.681067705154419e-08
      ]
    },
    {
      "children": [
        47
      ],
      "name": "r_HindLeg_Knee2SHJnt_37",
      "rotation": [
        0.350909024477005,
        0.015530090779066086,
        -0.02657242864370346,
        0.9359036684036255
      ],
      "scale": [
        0.9999999403953552,
        0.9999999403953552,
        0.9999999403953552
      ],
      "translation": [
        4.0279701352119446e-08,
        0.2371819168329239,
        -7.636845111846924e-08
      ]
    },
    {
      "children": [
        48
      ],
      "name": "r_HindLeg_AnkleSHJnt_36",
      "rotation": [
        -0.07525204122066498,
        -0.06670309603214264,
        0.035625603049993515,
        0.9942931532859802
      ],
      "scale": [
        0.9999999403953552,
        0.9999999403953552,
        1.0
      ],
      "translation": [
        6.28642737865448e-09,
        0.21463888883590698,
        7.869675755500793e-08
      ]
    },
    {
      "children": [
        49
      ],
      "name": "r_HindLeg_BallSHJnt_35",
      "rotation": [
        0.7071064710617065,
        -5.027309413208059e-08,
        -3.4467912968239034e-08,
        0.7071071863174438
      ],
      "translation": [
        3.0693204422505005e-08,
        0.04604152962565422,
        0.04029146209359169
      ]
    },
    {
      "name": "r_HindLeg_ToeSHJnt_34",
      "rotation": [
        -1.7653851713816948e-09,
        -1.697226537089591e-08,
        -1.6334305996679177e-07,
        1.0
      ],
      "translation": [
        5.215404996761208e-08,
        0.06841960549354553,
        -3.3527612686157227e-08
      ]
    },
    {
      "name": "Tail_01_01SHJnt_40",
      "rotation": [
        0.44295328855514526,
        5.361432613426587e-06,
        -1.6983510704449145e-06,
        0.8965446949005127
      ],
      "translation": [
        -1.706278339952405e-06,
        0.19856120645999908,
        -0.001987100811675191
      ]
    }
  ],
  "samplers": [
    {
      "magFilter": 9729,
      "minFilter": 9987,
      "wrapS": 10497,
      "wrapT": 10497
    }
  ],
  "scene": 0,
  "scenes": [
    {
      "name": "Sketchfab_Scene",
      "nodes": [
        0
      ]
    }
  ],
  "skins": [
    {
      "inverseBindMatrices": 4,
      "joints": [
        5,
        8,
        9,
        10,
        11,
        12,
        13,
        14,
        15,
        16,
        17,
        18,
        19,
        20,
        21,
        22,
        23,
        24,
        25,
        26,
        27,
        28,
        29,
        30,
        31,
        32,
        33,
        34,
        35,
        36,
        37,
        38,
        39,
        40,
        41,
        42,
        43,
        44,
        45,
        46,
        47,
        48,
        49,
        50
      ],
      "skeleton": 5
    }
  ],
  "textures": [
    {
      "sampler": 0,
      "source": 0
    }
  ]
}
